<?xml version="1.0" encoding="UTF-8"?>
<svg id="Logo" xmlns="http://www.w3.org/2000/svg" viewBox="185 2630 2935 230">
  <defs>
    <style>
      .cls-1 {
        fill: #ffffff;
      }
    </style>
  </defs>
  <g id="Logo_Type_-_Terracotta" data-name="Logo Type - Terracotta">
    <path class="cls-1" d="m185.78,2634.46h28.59v175.26h108.36v24.87h-136.95v-200.13Z"/>
    <path class="cls-1" d="m966.37,2653.05c14.87,12.39,22.3,29.45,22.3,51.18s-7.43,38.79-22.3,51.18c-14.87,12.39-35.26,18.58-61.18,18.58h-49.46v60.61h-28.59v-200.13h78.05c25.92,0,46.32,6.2,61.18,18.58Zm-20.58,84.48c9.53-7.72,14.3-18.82,14.3-33.31s-4.77-25.59-14.3-33.31c-9.53-7.72-23.35-11.58-41.46-11.58h-48.6v89.77h48.6c18.11,0,31.92-3.86,41.46-11.58Z"/>
    <path class="cls-1" d="m1087.24,2634.46h28.59v200.13h-28.59v-200.13Z"/>
    <path class="cls-1" d="m1386.51,2634.46v200.13h-23.44l-120.08-149.24v149.24h-28.59v-200.13h23.44l120.08,149.24v-149.24h28.59Z"/>
    <path class="cls-1" d="m1502.97,2829.88c-14.01-4.67-25.02-10.72-33.02-18.16l10.58-22.3c7.62,6.86,17.39,12.44,29.3,16.73,11.91,4.29,24.16,6.43,36.74,6.43,16.58,0,28.97-2.81,37.17-8.43,8.19-5.62,12.29-13.1,12.29-22.44,0-6.86-2.24-12.44-6.72-16.73-4.48-4.29-10.01-7.58-16.58-9.86-6.58-2.29-15.87-4.86-27.87-7.72-15.06-3.62-27.21-7.24-36.45-10.86-9.25-3.62-17.15-9.19-23.73-16.73-6.58-7.53-9.86-17.68-9.86-30.45,0-10.67,2.81-20.3,8.43-28.88,5.62-8.58,14.15-15.44,25.59-20.58,11.44-5.15,25.63-7.72,42.6-7.72,11.82,0,23.44,1.53,34.88,4.58,11.44,3.05,21.25,7.43,29.45,13.15l-9.44,22.87c-8.39-5.33-17.35-9.39-26.88-12.15-9.53-2.76-18.87-4.14-28.02-4.14-16.2,0-28.35,2.96-36.45,8.86-8.1,5.91-12.15,13.54-12.15,22.87,0,6.86,2.29,12.44,6.86,16.73,4.58,4.29,10.24,7.62,17.01,10.01,6.76,2.39,15.96,4.91,27.59,7.58,15.05,3.62,27.16,7.25,36.31,10.86,9.15,3.62,17.01,9.15,23.59,16.58,6.58,7.43,9.86,17.44,9.86,30.02,0,10.48-2.86,20.06-8.58,28.73-5.72,8.68-14.39,15.54-26.02,20.59-11.63,5.05-25.92,7.58-42.89,7.58-15.06,0-29.59-2.33-43.6-7Z"/>
    <path class="cls-1" d="m1811.49,2829.88c-14.01-4.67-25.02-10.72-33.02-18.16l10.58-22.3c7.62,6.86,17.39,12.44,29.3,16.73,11.91,4.29,24.16,6.43,36.74,6.43,16.58,0,28.97-2.81,37.17-8.43,8.19-5.62,12.29-13.1,12.29-22.44,0-6.86-2.24-12.44-6.72-16.73-4.48-4.29-10.01-7.58-16.58-9.86-6.58-2.29-15.87-4.86-27.87-7.72-15.06-3.62-27.21-7.24-36.45-10.86-9.25-3.62-17.15-9.19-23.73-16.73-6.58-7.53-9.86-17.68-9.86-30.45,0-10.67,2.81-20.3,8.43-28.88,5.62-8.58,14.15-15.44,25.59-20.58,11.44-5.15,25.63-7.72,42.6-7.72,11.82,0,23.44,1.53,34.88,4.58,11.44,3.05,21.25,7.43,29.45,13.15l-9.44,22.87c-8.39-5.33-17.35-9.39-26.87-12.15-9.53-2.76-18.87-4.14-28.02-4.14-16.2,0-28.35,2.96-36.45,8.86-8.1,5.91-12.15,13.54-12.15,22.87,0,6.86,2.29,12.44,6.86,16.73,4.58,4.29,10.24,7.62,17.01,10.01,6.76,2.39,15.96,4.91,27.59,7.58,15.05,3.62,27.16,7.25,36.31,10.86,9.15,3.62,17.01,9.15,23.59,16.58,6.58,7.43,9.86,17.44,9.86,30.02,0,10.48-2.86,20.06-8.58,28.73-5.72,8.68-14.39,15.54-26.02,20.59-11.63,5.05-25.92,7.58-42.89,7.58-15.06,0-29.59-2.33-43.6-7Z"/>
    <path class="cls-1" d="m2073.23,2659.34h-68.62v-24.87h165.54v24.87h-68.62v175.26h-28.3v-175.26Z"/>
    <path class="cls-1" d="m2275.56,2814.01c-14.87-15.25-22.3-37.17-22.3-65.76v-113.79h28.59v112.65c0,42.89,18.77,64.33,56.32,64.33,18.3,0,32.31-5.29,42.03-15.87,9.72-10.58,14.58-26.73,14.58-48.46v-112.65h27.73v113.79c0,28.78-7.43,50.75-22.3,65.9-14.87,15.15-35.64,22.73-62.33,22.73s-47.46-7.62-62.33-22.87Z"/>
    <path class="cls-1" d="m2510.16,2634.46h84.34c21.16,0,39.93,4.2,56.32,12.58,16.39,8.39,29.11,20.16,38.17,35.31,9.05,15.15,13.58,32.55,13.58,52.18s-4.53,37.02-13.58,52.18c-9.05,15.15-21.78,26.92-38.17,35.31-16.39,8.39-35.17,12.58-56.32,12.58h-84.34v-200.13Zm82.63,175.26c16.2,0,30.45-3.14,42.74-9.44,12.29-6.29,21.77-15.1,28.45-26.45,6.67-11.34,10.01-24.44,10.01-39.31s-3.34-27.97-10.01-39.31c-6.67-11.34-16.15-20.16-28.45-26.45-12.29-6.29-26.54-9.44-42.74-9.44h-54.04v150.39h54.04Z"/>
    <path class="cls-1" d="m2779.91,2634.46h28.59v200.13h-28.59v-200.13Z"/>
    <path class="cls-1" d="m2937.79,2823.59c-16.2-8.86-28.93-21.11-38.17-36.74-9.25-15.63-13.87-33.07-13.87-52.32s4.62-36.69,13.87-52.32c9.24-15.63,21.96-27.87,38.17-36.74,16.2-8.86,34.4-13.3,54.61-13.3s38.12,4.43,54.32,13.3c16.2,8.86,28.88,21.06,38.03,36.59,9.15,15.54,13.72,33.02,13.72,52.46s-4.57,36.93-13.72,52.46c-9.15,15.54-21.83,27.73-38.03,36.59-16.2,8.86-34.31,13.3-54.32,13.3s-38.41-4.43-54.61-13.3Zm94.2-22.16c11.72-6.67,20.97-15.87,27.73-27.59,6.76-11.72,10.15-24.82,10.15-39.31s-3.39-27.59-10.15-39.31c-6.77-11.72-16.01-20.92-27.73-27.59-11.72-6.67-24.92-10.01-39.6-10.01s-27.97,3.34-39.88,10.01c-11.91,6.67-21.26,15.87-28.02,27.59-6.77,11.72-10.15,24.83-10.15,39.31s3.38,27.59,10.15,39.31c6.76,11.72,16.1,20.92,28.02,27.59,11.91,6.67,25.2,10.01,39.88,10.01s27.87-3.33,39.6-10.01Z"/>
    <g>
      <path class="cls-1" d="m567.52,2771.75c-5.68-11.63-7.48-17.7-8.13-32.17-.66-14.47,2.13-27.72,8.36-39.73.84-1.62,1.73-3.18,2.67-4.71,5-8.18,11.4-15.1,19.18-20.79,1.58-1.16,3.2-2.27,4.89-3.33,11.6-7.2,24.72-11.14,39.39-11.8,14.66-.66,28,2.07,40.01,8.2,12.01,6.14,21.66,14.9,28.95,26.31,7.29,11.4,11.26,24.34,11.92,38.81.66,14.47-2.13,27.72-8.36,39.73-6.23,12.02-15.05,21.62-26.46,28.82-11.41,7.2-24.44,11.12-39.1,11.79-14.67.66-28.1-2.06-40.3-8.19-1.78-.89-3.5-1.86-5.17-2.87-5.37,7.43-11.39,13.83-18.08,20.33,3.36,2.16,5.85,3.53,9.55,5.34,16.58,8.12,34.97,11.72,55.15,10.81,19.99-.91,37.88-6.15,53.66-15.74,15.78-9.59,27.89-22.34,36.33-38.28,8.44-15.93,12.21-33.61,11.33-53.03-.88-19.42-6.24-36.68-16.08-51.79-9.84-15.1-23.06-26.72-39.64-34.84-16.59-8.12-34.88-11.73-54.87-10.82-20.18.91-38.17,6.17-53.95,15.75-3.51,2.13-6.82,4.45-9.97,6.91-7.35,5.71-13.73,12.28-19.13,19.72-2.69,3.72-5.16,7.64-7.37,11.8-8.53,16.03-12.35,33.67-11.48,52.89.87,19.23,4.51,29.9,12.34,45.2"/>
      <path class="cls-1" d="m572.56,2701.12c5.67,11.63,7.46,17.71,8.1,32.18.64,14.47-2.16,27.71-8.4,39.72-.84,1.61-1.73,3.18-2.67,4.71-5.01,8.17-11.41,15.09-19.2,20.78-1.58,1.15-3.2,2.27-4.9,3.32-11.6,7.19-24.74,11.11-39.4,11.76-14.66.65-28-2.1-40-8.24-12.01-6.15-21.65-14.92-28.93-26.33-7.28-11.41-11.24-24.35-11.88-38.82-.64-14.47,2.16-27.71,8.4-39.72,6.24-12.01,15.07-21.61,26.48-28.79,11.41-7.19,24.45-11.1,39.11-11.75,14.67-.65,28.09,2.09,40.29,8.23,1.78.9,3.49,1.87,5.17,2.87,5.37-7.42,11.41-13.82,18.1-20.32-3.36-2.16-5.85-3.53-9.54-5.35-16.58-8.14-34.96-11.76-55.14-10.86-19.99.89-37.88,6.12-53.68,15.69-15.79,9.57-27.92,22.32-36.37,38.24-8.45,15.92-12.25,33.6-11.39,53.02.86,19.42,6.2,36.69,16.03,51.8,9.83,15.11,23.03,26.74,39.61,34.87,16.58,8.14,34.86,11.76,54.86,10.88,20.19-.89,38.18-6.13,53.97-15.7,3.52-2.13,6.82-4.45,9.98-6.9,7.35-5.71,13.74-12.26,19.15-19.7,2.7-3.72,5.17-7.64,7.38-11.79,8.55-16.03,12.39-33.65,11.53-52.88-.85-19.24-4.49-29.9-12.3-45.21"/>
    </g>
  </g>
</svg>