<svg width="1000" height="1000" viewBox="0 0 1000 1000" fill="none" xmlns="http://www.w3.org/2000/svg">
<g clip-path="url(#clip0_322_684)">
<circle cx="500" cy="500" r="500" fill="#703315"/>
<path d="M320.792 382.462H364.7L687.547 624.498C692.794 628.065 701.895 632.917 707.296 634.798C707.296 634.798 751.8 652.111 801.779 639.737C823.241 634.376 844.69 626.8 866.119 617.203C866.119 617.203 856.041 635.668 789.164 658.375C789.164 658.375 735.692 676.618 673.814 652.505C673.814 652.505 660.329 647.901 623.514 618.395C586.706 588.881 320.785 382.462 320.785 382.462H320.792Z" fill="#F6E8C7"/>
<path d="M444.186 382.462H400.277C400.277 382.462 641.825 569.962 696.361 613.114H751.847L444.186 382.462Z" fill="#F6E8C7"/>
<path d="M339.43 636.283L341.792 634.449L340.447 636.544L339.43 636.283Z" fill="#F6E8C7"/>
<path d="M250.275 337.435C278.168 337.435 305.687 344.609 329.86 358.188C336.834 362.103 343.579 366.581 349.917 371.493H356.609C350.111 366.453 339.069 358.543 331.915 354.528C307.119 340.594 278.884 333.232 250.275 333.232C231.436 333.232 212.944 336.344 195.323 342.488C178.285 348.424 153.664 359.841 140.393 371.493H146.402C182.28 348.498 213.828 337.429 250.281 337.429L250.275 337.435Z" fill="#F6E8C7"/>
<path d="M903.349 435.405C894.796 415.181 882.549 397.017 866.949 381.418C851.349 365.818 833.186 353.571 812.962 345.018C792.022 336.157 769.776 331.667 746.848 331.667C723.92 331.667 700.664 336.411 679.369 345.761C679.369 345.761 679.362 345.761 679.356 345.761C679.208 345.854 676.645 347.414 673.058 349.729C672.724 349.95 672.375 350.171 672.021 350.405C671.927 350.465 671.827 350.532 671.733 350.593C671.653 350.646 671.572 350.7 671.492 350.746C671.425 350.787 671.365 350.833 671.298 350.874C668.22 352.895 664.639 355.317 661.259 357.787L657.726 360.845L340.488 635.547C340.488 635.547 340.461 635.58 340.448 635.594C339.926 635.942 339.397 636.29 338.868 636.631C312.734 653.589 282.003 662.878 250.268 662.878C160.537 662.878 87.5363 589.878 87.5363 500.147C87.5363 454.712 108.182 411.025 141.33 379.925H134.456C117.987 395.378 106.63 412.115 97.528 432.681C88.1119 453.976 83.3335 476.67 83.3335 500.147C83.3335 523.624 87.7505 544.544 96.4505 565.123C104.856 584.999 116.896 602.855 132.221 618.18C147.553 633.512 165.402 645.545 185.278 653.951C205.857 662.658 227.721 667.068 250.254 667.068C274.601 667.068 298.071 661.941 320.009 651.836C327.752 648.269 335.147 644.16 342.174 639.515L342.663 639.187L343.218 638.706L374.451 611.662L664.565 360.45C672.329 354.588 678.76 350.546 678.88 350.465C700.082 340.802 723.278 335.762 747.363 335.836C838.38 336.124 912.417 410.382 912.471 501.398C912.498 541.666 894.02 572.819 869.466 607.218L874.344 607.178C899.347 572.15 916.667 542.831 916.667 501.485C916.667 478.557 912.176 456.312 903.316 435.371L903.349 435.405Z" fill="#F6E8C7"/>
</g>
<defs>
<clipPath id="clip0_322_684">
<rect width="1000" height="1000" fill="white"/>
</clipPath>
</defs>
</svg>
