<svg width="134" height="32" viewBox="0 0 134 32" fill="none" xmlns="http://www.w3.org/2000/svg">
<path d="M53.9523 5.1845C53.9342 5.15327 53.915 5.12205 53.897 5.09082H53.8633C53.8933 5.12325 53.9234 5.15327 53.9535 5.1845" fill="#703315"/>
<path d="M63.9525 15.6499C56.4898 14.2844 57.0094 10.392 53.9521 5.18335L63.9525 15.6499Z" fill="#703315"/>
<path d="M63.9525 15.6499C64.6272 8.75146 58.9072 10.3271 53.9521 5.18335L63.9525 15.6499Z" fill="#703315"/>
<path d="M64.6582 15.7618C71.2357 16.6709 70.1136 11.2341 74.507 6.42056V6.41455C69.5002 9.34854 65.6624 8.76486 64.6582 15.763" fill="#703315"/>
<path d="M54.0037 25.7095C53.9831 25.7216 53.9637 25.7325 53.9443 25.7446V25.7724C53.9649 25.7518 53.9855 25.7313 54.0037 25.7095Z" fill="#703315"/>
<path d="M63.8659 16.3537C57.2824 15.4445 58.4129 20.8922 54.0039 25.7093L63.8659 16.3537Z" fill="#703315"/>
<path d="M54.0039 25.7094C59.0167 22.7658 62.8617 23.3567 63.8659 16.3538L54.0039 25.7094Z" fill="#703315"/>
<path d="M64.573 16.4653C63.8995 23.3529 69.6014 21.7929 74.5517 26.909H74.5613C71.5197 21.71 72.0248 17.8284 64.573 16.4653Z" fill="#703315"/>
<path d="M63.9518 15.6499C63.9338 15.7688 63.9518 15.7964 63.8652 16.3525L63.9518 15.6499Z" fill="#703315"/>
<path d="M63.9521 15.6499C64.5222 15.7544 64.5354 15.74 64.6581 15.7616L63.9521 15.6499Z" fill="#703315"/>
<path d="M64.5723 16.4653C64.5903 16.3464 64.5723 16.3187 64.6589 15.7627L64.5723 16.4653Z" fill="#703315"/>
<path d="M64.5732 16.4655C64.0031 16.361 63.9899 16.3754 63.8672 16.3538L64.5732 16.4655Z" fill="#703315"/>
<path d="M131.704 10.0474C130.666 8.43035 129.266 7.18108 127.504 6.3021C125.741 5.42312 123.792 5.02255 121.659 5.10283C119.504 5.18311 117.581 5.72786 115.889 6.73545C115.513 6.95991 115.157 7.20403 114.819 7.46289C114.031 8.06581 113.344 8.75965 112.762 9.54852C112.472 9.94255 112.205 10.3587 111.966 10.7994C111.043 12.5009 110.619 14.376 110.696 16.4255C110.773 18.476 111.153 19.6154 111.975 21.2513L114.586 19.7465C113.989 18.503 113.802 17.8542 113.745 16.3117C113.687 14.7692 113.996 13.3602 114.67 12.0855C114.761 11.9143 114.857 11.748 114.959 11.5858C115.499 10.7183 116.188 9.98597 117.023 9.38633C117.193 9.26427 117.366 9.14631 117.548 9.03572C118.792 8.27797 120.195 7.87003 121.761 7.81186C123.326 7.7537 124.746 8.05597 126.023 8.7195C127.299 9.38386 128.321 10.3259 129.09 11.5473C129.858 12.7687 130.271 14.1507 130.329 15.6924C130.386 17.2349 130.078 18.6439 129.403 19.9185C128.728 21.1932 127.78 22.2098 126.556 22.9667C125.333 23.7236 123.938 24.1316 122.374 24.1897C120.809 24.2479 119.378 23.9464 118.081 23.2829C117.892 23.1862 117.709 23.0814 117.531 22.9724C116.952 23.7589 116.304 24.4363 115.586 25.1236C115.942 25.3563 116.207 25.5045 116.6 25.7003C118.362 26.5793 120.321 26.9791 122.475 26.8988C124.609 26.8193 126.522 26.2754 128.214 25.267C129.905 24.2586 131.209 22.9102 132.123 21.2194C133.037 19.5294 133.454 17.6486 133.377 15.5785C133.3 13.5084 132.742 11.6653 131.705 10.0466L131.704 10.0474Z" fill="#703315"/>
<path d="M98.053 21.9451C99.0891 23.5638 100.488 24.8131 102.25 25.6945C104.012 26.5751 105.96 26.9774 108.094 26.8995C110.248 26.8209 112.173 26.2786 113.865 25.2726C114.242 25.0482 114.597 24.8049 114.936 24.546C115.725 23.9439 116.412 23.2509 116.995 22.4628C117.287 22.0688 117.553 21.6535 117.793 21.2128C118.718 19.5121 119.143 17.6379 119.068 15.5875C118.994 13.537 118.615 12.3976 117.794 10.76L115.182 12.2624C115.778 13.5067 115.963 14.1555 116.02 15.6981C116.076 17.2406 115.767 18.6487 115.091 19.9234C115 20.0946 114.903 20.2609 114.802 20.4223C114.26 21.289 113.571 22.0205 112.735 22.6193C112.566 22.7406 112.392 22.8585 112.21 22.9691C110.966 23.7252 109.562 24.1323 107.996 24.1889C106.432 24.2454 105.011 23.9415 103.735 23.2771C102.46 22.6119 101.439 21.6682 100.671 20.4468C99.9045 19.2246 99.4927 17.8427 99.4369 16.3001C99.3803 14.7576 99.6912 13.3495 100.366 12.0748C101.042 10.8002 101.992 9.78519 103.216 9.02909C104.44 8.27298 105.835 7.86668 107.4 7.81016C108.965 7.75363 110.396 8.05672 111.692 8.72108C111.881 8.81774 112.064 8.9226 112.242 9.03155C112.822 8.24513 113.47 7.56849 114.19 6.88202C113.833 6.64855 113.569 6.50028 113.177 6.30449C111.415 5.42387 109.457 5.02248 107.302 5.1003C105.169 5.17812 103.255 5.71961 101.562 6.72638C99.8684 7.73316 98.564 9.0807 97.6485 10.7707C96.733 12.4598 96.313 14.3398 96.3885 16.4099C96.464 18.48 97.0193 20.324 98.0554 21.9435L98.053 21.9451Z" fill="#703315"/>
<path d="M20.9395 10.2348V10.4919C21.1335 10.2422 21.4376 9.81806 21.5918 9.54358C22.1273 8.59157 22.4108 7.50729 22.4108 6.40872C22.4108 5.68525 22.2908 4.97543 22.0551 4.29853C21.8269 3.64399 21.3878 2.69881 20.9401 2.18896V2.41998C21.8244 3.798 22.2498 5.00897 22.2498 6.40872C22.2498 7.47996 21.9737 8.53692 21.4519 9.46471C21.3014 9.73237 21.1291 9.99132 20.9401 10.2348H20.9395Z" fill="#703315"/>
<path d="M27.7392 22.0236C28.3947 21.7957 29.3412 21.3573 29.8517 20.9102H29.6204C28.2404 21.7932 27.0278 22.218 25.626 22.218C24.5533 22.218 23.4948 21.9423 22.5657 21.4212C22.2977 21.271 22.0384 21.0989 21.7946 20.9102H21.5371C21.7871 21.1039 22.2119 21.4076 22.4867 21.5616C23.4401 22.0963 24.5259 22.3795 25.626 22.3795C26.3505 22.3795 27.0613 22.2596 27.7392 22.0242V22.0236Z" fill="#703315"/>
<path d="M9.63343 25.59C9.63343 26.3134 9.75346 27.0233 9.98915 27.7002C10.2174 28.3547 10.6564 29.2999 11.1042 29.8097V29.5787C10.2199 28.2007 9.7945 26.9897 9.7945 25.59C9.7945 24.5187 10.0706 23.4618 10.5924 22.534C10.7429 22.2663 10.9151 22.0074 11.1042 21.7639V21.5068C10.9102 21.7565 10.6061 22.1806 10.4518 22.4551C9.91639 23.4071 9.63281 24.4914 9.63281 25.59H9.63343Z" fill="#703315"/>
<path d="M4.30493 9.97449C3.64947 10.2024 2.70295 10.6408 2.19238 11.088H2.42373C3.80369 10.2049 5.01637 9.78012 6.41811 9.78012C7.49086 9.78012 8.54932 10.0558 9.47842 10.5769C9.74645 10.7272 10.0058 10.8992 10.2496 11.088H10.507C10.257 10.8942 9.83227 10.5905 9.5574 10.4365C8.60404 9.90183 7.51823 9.61865 6.41811 9.61865C5.69361 9.61865 4.98279 9.73851 4.30493 9.97387V9.97449Z" fill="#703315"/>
<path d="M32.0452 15.9693C32.0452 15.1042 31.8755 14.2646 31.5409 13.474C31.2175 12.7108 30.7548 12.0252 30.1653 11.4365C29.5757 10.8478 28.8892 10.3858 28.1249 10.0628C27.3332 9.72873 26.493 9.5592 25.6261 9.5592C25.6081 9.5592 25.59 9.5592 25.572 9.55982C25.5527 9.55982 25.5335 9.5592 25.5136 9.5592C24.61 9.5592 23.7374 9.74115 22.9184 10.1007C22.9128 10.1044 22.8139 10.1641 22.6765 10.2535C22.6634 10.2622 22.6504 10.2703 22.6367 10.2796C22.633 10.2821 22.6292 10.2845 22.6255 10.287C22.6224 10.2889 22.6193 10.2907 22.6162 10.2932C22.6137 10.2951 22.6112 10.2963 22.6087 10.2982C22.5745 10.3206 22.5378 10.3448 22.5011 10.3696C22.3612 10.4472 22.2244 10.5305 22.0913 10.618L22.0726 10.6304L22.0515 10.6491L20.8506 11.6874L16.1535 15.7488C16.1318 15.7215 16.1044 15.6855 16.0652 15.6321C16.0335 15.6544 16.0254 15.6643 15.929 15.7333L10.6809 9.68092C10.6467 9.63558 10.6138 9.59087 10.5827 9.54864C10.041 8.61713 9.74249 7.55147 9.73503 6.45353C9.77172 2.99947 12.5864 0.194375 16.0447 0.162083C16.4564 0.165809 16.8643 0.213006 17.263 0.300568C18.291 0.551456 19.197 1.11844 20.1703 1.81273V1.79534C20.3245 1.93196 20.4738 2.07603 20.6156 2.22694V1.96301C20.021 1.3302 19.3774 0.894254 18.587 0.545246C18.1181 0.337829 17.6311 0.189408 17.1311 0.100603C16.8078 0.0353972 16.4682 0 16.1044 0C16.0851 0 16.0665 -1.2887e-06 16.0472 0.000619721C16.0285 0.000619721 16.0105 0 15.9918 0C15.1255 0 14.2848 0.169535 13.4931 0.503638C12.7288 0.826563 12.0422 1.28859 11.4527 1.87731C10.8631 2.46603 10.4004 3.15162 10.0771 3.91484C9.74249 4.70539 9.57271 5.54437 9.57271 6.41006C9.57271 6.42807 9.57271 6.44608 9.57334 6.46409C9.57334 6.48334 9.57271 6.50259 9.57271 6.52246C9.57271 7.42479 9.75493 8.29606 10.115 9.11393C10.1187 9.11952 10.1784 9.21826 10.268 9.35551C10.2761 9.36855 10.2848 9.38159 10.2941 9.39525C10.2966 9.39898 10.2991 9.4027 10.3016 9.40643C10.3034 9.40954 10.3053 9.41264 10.3078 9.41575C10.3097 9.41823 10.3109 9.42071 10.3128 9.4232C10.3351 9.45735 10.3594 9.49399 10.3843 9.53063C10.462 9.67036 10.5453 9.80698 10.633 9.93988L10.6455 9.95851L10.6641 9.97962L11.7039 11.1788L15.1386 15.1396C13.7686 14.2416 12.5907 15.7091 10.2046 15.6631C12.4539 16.2493 13.3899 17.4398 15.7561 15.8513L15.8755 15.9891L9.6946 21.3335C9.64921 21.3683 9.60443 21.4006 9.56214 21.4317C8.62931 21.9726 7.56215 22.2706 6.46265 22.2781C3.00372 22.2415 0.194651 19.4308 0.162313 15.9773C0.166044 15.5662 0.213308 15.1588 0.300994 14.7608C0.552237 13.7342 1.12002 12.8294 1.81529 11.8576H1.79788C1.93469 11.7035 2.07897 11.5545 2.23009 11.4129H1.96579C1.33208 12.0066 0.895518 12.6487 0.546017 13.4386C0.338307 13.9069 0.190298 14.3931 0.100746 14.8924C0.0354482 15.2154 0 15.5544 0 15.9177C0 15.937 6.07326e-07 15.9556 0.000622495 15.9748C0.000622495 15.9935 0 16.0115 0 16.0301C0 16.8952 0.169775 17.7348 0.504351 18.5253C0.827732 19.2886 1.29042 19.9741 1.87997 20.5629C2.46952 21.1516 3.15608 21.6136 3.92038 21.9365C4.71204 22.2706 5.55221 22.4402 6.41912 22.4402C6.43716 22.4402 6.45519 22.4402 6.47323 22.4396C6.49251 22.4396 6.51178 22.4402 6.53168 22.4402C7.43529 22.4402 8.30779 22.2582 9.12682 21.8987C9.13242 21.8949 9.2313 21.8353 9.36873 21.7459C9.38179 21.7372 9.39485 21.7291 9.40853 21.7198C9.41227 21.7173 9.416 21.7148 9.41973 21.7124C9.42284 21.7105 9.42595 21.7086 9.42906 21.7061C9.43155 21.7043 9.43403 21.703 9.43652 21.7012C9.47072 21.6788 9.50742 21.6546 9.54411 21.6298C9.68403 21.5521 9.82085 21.4689 9.95393 21.3814L9.97259 21.3689L9.99373 21.3503L11.1946 20.312L15.2611 16.7958C14.526 18.0217 15.7798 19.1979 15.8743 21.2963C16.3898 19.3115 17.4427 18.3918 16.3979 16.5921L21.3637 22.3191C21.3985 22.3644 21.4309 22.4091 21.462 22.4514C22.0036 23.3829 22.3015 24.4485 22.3096 25.5465C22.2729 29.0005 19.4582 31.8056 15.9999 31.8379C15.5882 31.8342 15.1803 31.787 14.7816 31.6994C13.7537 31.4485 12.8476 30.8816 11.8743 30.1873V30.2047C11.7201 30.068 11.5708 29.924 11.429 29.7731V30.037C12.0236 30.6698 12.6672 31.1057 13.4576 31.4548C13.9265 31.6622 14.4135 31.8106 14.9135 31.8994C15.2369 31.9646 15.5764 32 15.9402 32C15.9595 32 15.9782 32 15.9974 31.9994C16.0161 31.9994 16.0341 32 16.0528 32C16.9191 32 17.7599 31.8305 18.5515 31.4964C19.3158 31.1734 20.0024 30.7114 20.5919 30.1227C21.1815 29.534 21.6442 28.8484 21.9676 28.0852C22.3021 27.2946 22.4719 26.4556 22.4719 25.5899C22.4719 25.5719 22.4719 25.5539 22.4713 25.5359C22.4713 25.5167 22.4719 25.4974 22.4719 25.4775C22.4719 24.5752 22.2897 23.7039 21.9296 22.8861C21.9259 22.8805 21.8662 22.7817 21.7766 22.6445C21.7685 22.6314 21.7598 22.6184 21.7505 22.6047C21.748 22.601 21.7455 22.5973 21.743 22.5936C21.7412 22.5905 21.7393 22.5874 21.7368 22.5843C21.735 22.5818 21.7337 22.5793 21.7319 22.5768C21.7095 22.5426 21.6852 22.506 21.6603 22.4694C21.5826 22.3296 21.4993 22.193 21.4116 22.0601L21.3991 22.0415L21.3805 22.0204L20.3407 20.8212L16.1691 16.0109L16.2866 15.9096C17.9707 17.8869 19.115 15.9339 21.8581 15.9811L21.8606 15.978C19.7412 15.4228 18.7891 14.3341 16.6958 15.555L22.3494 10.6665C22.3948 10.6317 22.4396 10.5994 22.4819 10.5683C23.4147 10.0274 24.4818 9.72998 25.5813 9.7219C29.0403 9.75854 31.8493 12.5692 31.8817 16.0227C31.878 16.4338 31.8307 16.8412 31.7424 17.2392C31.4911 18.2658 30.9234 19.1706 30.2281 20.1424H30.2455C30.1087 20.2965 29.9644 20.4455 29.8133 20.5871H30.0776C30.7113 19.9934 31.1479 19.3513 31.4974 18.5614C31.7051 18.0931 31.8537 17.6069 31.9426 17.1082C32.0079 16.7853 32.0434 16.4462 32.0434 16.0829C32.0434 16.0637 32.0434 16.045 32.0427 16.0258C32.0427 16.0071 32.0434 15.9891 32.0434 15.9705L32.0452 15.9693Z" fill="#703315"/>
<path d="M10.1523 15.6612C10.1693 15.6612 10.1862 15.6619 10.2031 15.6625C10.1893 15.6587 10.1755 15.6556 10.1617 15.6519L10.1523 15.6612Z" fill="#703315"/>
<path d="M16.2009 10.3539L16.199 10.3521C15.63 12.5355 14.413 13.4292 16.0653 15.6306C18.1256 14.0731 16.3191 12.8851 16.2009 10.3533V10.3539Z" fill="#703315"/>
<path d="M15.8754 21.3297C15.8754 21.3184 15.8754 21.3071 15.8741 21.2964C15.8716 21.3052 15.8697 21.314 15.8672 21.3228L15.8747 21.3303L15.8754 21.3297Z" fill="#703315"/>
<path d="M16.139 8.18987C16.4801 8.18987 16.7566 7.91378 16.7566 7.5732C16.7566 7.23263 16.4801 6.95654 16.139 6.95654C15.798 6.95654 15.5215 7.23263 15.5215 7.5732C15.5215 7.91378 15.798 8.18987 16.139 8.18987Z" fill="#703315"/>
<path d="M24.4593 16.5158C24.8004 16.5158 25.0769 16.2397 25.0769 15.8991C25.0769 15.5586 24.8004 15.2825 24.4593 15.2825C24.1183 15.2825 23.8418 15.5586 23.8418 15.8991C23.8418 16.2397 24.1183 16.5158 24.4593 16.5158Z" fill="#703315"/>
<path d="M16.139 24.425C16.4801 24.425 16.7566 24.1489 16.7566 23.8083C16.7566 23.4677 16.4801 23.1917 16.139 23.1917C15.798 23.1917 15.5215 23.4677 15.5215 23.8083C15.5215 24.1489 15.798 24.425 16.139 24.425Z" fill="#703315"/>
<path d="M8.20152 16.5158C8.54257 16.5158 8.81905 16.2397 8.81905 15.8991C8.81905 15.5586 8.54257 15.2825 8.20152 15.2825C7.86046 15.2825 7.58398 15.5586 7.58398 15.8991C7.58398 16.2397 7.86046 16.5158 8.20152 16.5158Z" fill="#703315"/>
</svg>
