<svg width="50" height="36" viewBox="0 0 50 36" fill="none" xmlns="http://www.w3.org/2000/svg">
<path d="M3.62036 34.5956L46.2211 2.87549M3.62036 2.87549L24.9208 18.7355L46.2211 34.5956" stroke="black" stroke-width="2" stroke-linecap="round"/>
<path d="M1.00023 1.00049L4.51694 14.1251M49.0002 1.00049L45.4836 14.1251M4.51694 14.1251L8.12423 12.9595C10.1635 12.3006 12.3951 12.6471 14.139 13.8927C16.3667 15.484 19.3349 15.5761 21.6564 14.1252C23.8269 12.7686 26.5773 12.7534 28.7627 14.086L28.9697 14.2122C31.2675 15.6133 34.1798 15.5074 36.3697 13.9432C38.152 12.6701 40.4431 12.3461 42.5085 13.0751L45.4836 14.1251M4.51694 14.1251L7.29604 24.3603L10.0752 34.5956H39.951L45.4836 14.1251" stroke="black" stroke-width="2" stroke-linecap="round"/>
</svg>
